<?xml version="1.0" encoding="UTF-8"?>
<svg version="1.1" xmlns="http://www.w3.org/2000/svg" width="1563" height="1563">
<path d="M0 0 C1.55288701 -0.0252057 3.10652202 -0.0170955 4.65924454 0.01675987 C5.51612468 0.01163332 6.37300482 0.00650677 7.25585103 0.00122488 C10.13247093 -0.00867307 13.00699969 0.02436361 15.88342667 0.05713463 C17.94310329 0.05882673 20.00278353 0.05787774 22.06245804 0.0544796 C27.65946589 0.05275507 33.25570534 0.08807973 38.85253429 0.12992334 C44.6994826 0.16738084 50.54644769 0.17095178 56.39349747 0.17807579 C67.4681075 0.19673924 78.54236299 0.24599682 89.61681676 0.30617273 C102.22363288 0.37319102 114.83046575 0.40621514 127.4374156 0.43634534 C153.37306652 0.49909433 179.30840253 0.60465873 205.24377823 0.73828697 C204.58377823 1.72828697 203.92377823 2.71828697 203.24377823 3.73828697 C202.93440323 4.52203697 202.62502823 5.30578697 202.30627823 6.11328697 C201.19268303 8.86452216 199.78756394 11.20647841 198.24377823 13.73828697 C197.72815323 14.79016197 197.21252823 15.84203697 196.68127823 16.92578697 C195.24377823 19.73828697 195.24377823 19.73828697 193.24377823 21.73828697 C192.53667145 23.38820279 191.86433834 25.05390953 191.24377823 26.73828697 C190.58377823 26.73828697 189.92377823 26.73828697 189.24377823 26.73828697 C189.57377823 27.72828697 189.90377823 28.71828697 190.24377823 29.73828697 C189.35483791 31.18334162 188.44941791 32.62111209 187.45959854 33.99902916 C185.26545058 37.13780628 183.47960758 40.51999691 181.61877823 43.86328697 C181.2243251 44.56582603 180.82987198 45.2683651 180.42346573 45.99219322 C178.62305194 49.20982463 176.88634472 52.43687399 175.24377823 55.73828697 C174.58598566 56.90997998 173.91952117 58.07685379 173.24377823 59.23828697 C172.15757354 61.11810246 171.13039754 62.9717178 170.18127823 64.92578697 C169.08121861 67.0525689 167.67902953 68.82461857 166.24377823 70.73828697 C165.13752914 72.85935961 164.1149509 75.01171641 163.09534073 77.17578697 C160.90517874 81.75141201 159.00388915 85.25670279 155.24377823 88.73828697 C155.24377823 89.72828697 155.24377823 90.71828697 155.24377823 91.73828697 C154.43909073 93.49219322 154.43909073 93.49219322 153.36877823 95.30078697 C153.02073135 95.90020103 152.67268448 96.4996151 152.31409073 97.11719322 C151.24377823 98.73828697 151.24377823 98.73828697 149.24377823 100.73828697 C148.53667145 102.38820279 147.86433834 104.05390953 147.24377823 105.73828697 C146.58377823 105.73828697 145.92377823 105.73828697 145.24377823 105.73828697 C145.57377823 106.72828697 145.90377823 107.71828697 146.24377823 108.73828697 C144.46823302 112.22815169 143.0022551 114.9798101 140.24377823 117.73828697 C139.54043505 119.05264256 138.8762307 120.38838842 138.24377823 121.73828697 C135.8831329 126.64513054 133.35799559 131.30745512 130.39221573 135.87891197 C129.21460394 137.78552153 128.21992443 139.72198498 127.24377823 141.73828697 C126.24377823 143.73828697 125.24377823 145.73828697 124.24377823 147.73828697 C123.58377823 147.73828697 122.92377823 147.73828697 122.24377823 147.73828697 C122.12002823 148.48078697 121.99627823 149.22328697 121.86877823 149.98828697 C120.98038642 153.89721092 119.42367887 156.47116178 117.18127823 159.80078697 C115.1390528 162.62186037 115.1390528 162.62186037 114.24377823 165.73828697 C113.58377823 166.39828697 112.92377823 167.05828697 112.24377823 167.73828697 C110.28736449 171.2598317 108.81172163 175.03223893 107.24377823 178.73828697 C106.58377823 178.73828697 105.92377823 178.73828697 105.24377823 178.73828697 C105.08909073 179.88297447 105.08909073 179.88297447 104.93127823 181.05078697 C104.1817129 183.98090597 103.3577899 184.71618885 101.24377823 186.73828697 C101.24377823 187.72828697 101.24377823 188.71828697 101.24377823 189.73828697 C100.58377823 189.73828697 99.92377823 189.73828697 99.24377823 189.73828697 C99.16127823 190.39828697 99.07877823 191.05828697 98.99377823 191.73828697 C97.62661027 197.2069588 95.31768977 201.83088407 91.24377823 205.73828697 C89.61324479 208.61569893 88.44126869 211.6590258 87.24377823 214.73828697 C86.58377823 214.73828697 85.92377823 214.73828697 85.24377823 214.73828697 C84.91377823 215.72828697 84.58377823 216.71828697 84.24377823 217.73828697 C15.60377823 217.73828697 -53.03622177 217.73828697 -123.75622177 217.73828697 C-123.75622177 213.4022645 -122.30611804 209.28818324 -119.19372177 206.17578697 C-118.71934677 205.70141197 -118.24497177 205.22703697 -117.75622177 204.73828697 C-117.07683003 202.74257374 -116.41060618 200.74233924 -115.75622177 198.73828697 C-114.78749145 197.38206452 -113.79187962 196.04411644 -112.75622177 194.73828697 C-112.42622177 193.74828697 -112.09622177 192.75828697 -111.75622177 191.73828697 C-111.09622177 191.09891197 -110.43622177 190.45953697 -109.75622177 189.80078697 C-107.60904961 187.58651568 -107.29109753 186.68010365 -106.75622177 183.73828697 C-105.06608093 178.89321655 -105.06608093 178.89321655 -102.75622177 177.73828697 C-102.07275495 176.07843899 -101.41033862 174.40991892 -100.75622177 172.73828697 C-99.4756544 170.37294145 -98.10919955 168.06371752 -96.75622177 165.73828697 C-96.38497177 164.97516197 -96.01372177 164.21203697 -95.63122177 163.42578697 C-94.75622177 161.73828697 -94.75622177 161.73828697 -92.75622177 159.73828697 C-92.04911499 158.08837115 -91.37678188 156.42266442 -90.75622177 154.73828697 C-90.09622177 154.73828697 -89.43622177 154.73828697 -88.75622177 154.73828697 C-88.63247177 153.78953697 -88.50872177 152.84078697 -88.38122177 151.86328697 C-87.75622177 148.73828697 -87.75622177 148.73828697 -85.75622177 146.73828697 C-85.42622177 146.05766197 -85.09622177 145.37703697 -84.75622177 144.67578697 C-83.75622177 142.73828697 -83.75622177 142.73828697 -81.75622177 141.73828697 C-81.75622177 140.74828697 -81.75622177 139.75828697 -81.75622177 138.73828697 C-80.95153427 136.98438072 -80.95153427 136.98438072 -79.88122177 135.17578697 C-79.5331749 134.57637291 -79.18512802 133.97695885 -78.82653427 133.35938072 C-77.75622177 131.73828697 -77.75622177 131.73828697 -75.75622177 129.73828697 C-75.04911499 128.08837115 -74.37678188 126.42266442 -73.75622177 124.73828697 C-73.09622177 124.73828697 -72.43622177 124.73828697 -71.75622177 124.73828697 C-72.08622177 123.74828697 -72.41622177 122.75828697 -72.75622177 121.73828697 C-71.47559692 120.03078718 -70.1385462 118.36455101 -68.75622177 116.73828697 C-68.26122177 115.25328697 -68.26122177 115.25328697 -67.75622177 113.73828697 C-67.28184677 113.28453697 -66.80747177 112.83078697 -66.31872177 112.36328697 C-64.36235907 110.32866976 -63.79962129 108.36349501 -62.75622177 105.73828697 C-61.73994415 103.78734989 -60.69755439 101.84982191 -59.63122177 99.92578697 C-59.09239365 98.94996666 -58.55356552 97.97414635 -57.99840927 96.96875572 C-57.5884874 96.23270103 -57.17856552 95.49664635 -56.75622177 94.73828697 C-56.09622177 94.73828697 -55.43622177 94.73828697 -54.75622177 94.73828697 C-55.08622177 93.74828697 -55.41622177 92.75828697 -55.75622177 91.73828697 C-54.83044052 89.76563072 -54.83044052 89.76563072 -53.44372177 87.67578697 C-52.99383896 86.98356041 -52.54395615 86.29133385 -52.08044052 85.57813072 C-50.75622177 83.73828697 -50.75622177 83.73828697 -48.75622177 81.73828697 C-48.04911499 80.08837115 -47.37678188 78.42266442 -46.75622177 76.73828697 C-46.09622177 76.73828697 -45.43622177 76.73828697 -44.75622177 76.73828697 C-44.48809677 75.70703697 -44.21997177 74.67578697 -43.94372177 73.61328697 C-42.93828638 70.08356698 -41.48612713 66.98185951 -39.75622177 63.73828697 C-39.29215927 62.68641197 -39.29215927 62.68641197 -38.81872177 61.61328697 C-37.75622177 59.73828697 -37.75622177 59.73828697 -35.69372177 57.73828697 C-33.58197262 55.55841688 -33.36616829 54.61374913 -32.75622177 51.73828697 C-31.78238231 50.05620063 -30.77927125 48.39090536 -29.75622177 46.73828697 C-29.24059677 45.68641197 -28.72497177 44.63453697 -28.19372177 43.55078697 C-26.75622177 40.73828697 -26.75622177 40.73828697 -24.75622177 38.73828697 C-24.05963814 37.08390084 -23.39525294 35.41574379 -22.75622177 33.73828697 C-21.58764236 31.1820195 -20.76692908 29.74899428 -18.75622177 27.73828697 C-18.12287473 26.47159289 -17.49691646 25.20115453 -16.88122177 23.92578697 C-15.60499237 21.4442298 -14.30505591 19.06153819 -12.75622177 16.73828697 C-12.09622177 16.73828697 -11.43622177 16.73828697 -10.75622177 16.73828697 C-11.25122177 15.25328697 -11.25122177 15.25328697 -11.75622177 13.73828697 C-11.09622177 13.14016197 -10.43622177 12.54203697 -9.75622177 11.92578697 C-7.41883717 9.86326864 -7.41883717 9.86326864 -7.75622177 6.73828697 C-5.715331 2.38743261 -4.80999144 0.94540585 0 0 Z " fill="#FEFEFE" transform="translate(617.7562217712402,664.2617130279541)"/>
<path d="M0 0 C68.31 0 136.62 0 207 0 C207 5 207 5 205 7.125 C204.34 7.74375 203.68 8.3625 203 9 C203 9.99 203 10.98 203 12 C202.1953125 13.75390625 202.1953125 13.75390625 201.125 15.5625 C200.77695313 16.16191406 200.42890625 16.76132812 200.0703125 17.37890625 C199 19 199 19 197 21 C196.29289322 22.64991582 195.62056011 24.31562256 195 26 C194.34 26 193.68 26 193 26 C193.33 26.99 193.66 27.98 194 29 C192.9609375 31.12890625 192.9609375 31.12890625 191.375 33.5625 C188.60676943 37.94016694 186.2724785 42.37780428 184.078125 47.06640625 C183 49 183 49 181 50 C179.96567096 51.98246398 178.96761608 53.98413316 178 56 C177.34 56.99 176.68 57.98 176 59 C175.31867549 60.66072849 174.65257873 62.327767 174 64 C172.83142059 66.55626747 172.01070731 67.98929269 170 70 C169.835 70.66 169.67 71.32 169.5 72 C169 74 169 74 167 76 C166.29393019 77.31289286 165.63277031 78.65025041 165 80 C164.19135375 81.68935009 163.37866755 83.37677077 162.5625 85.0625 C162.15128906 85.91972656 161.74007813 86.77695312 161.31640625 87.66015625 C160.07182238 89.87233945 158.81143912 91.26060675 157 93 C156.63837971 94.32594105 156.30271961 95.65938457 156 97 C155.34 97.66 154.68 98.32 154 99 C153.855625 99.66 153.71125 100.32 153.5625 101 C153 103 153 103 150 105 C149.60828247 106.65391846 149.27942455 108.32345271 149 110 C147.34418832 113.82110389 145.0789021 117.3965697 143 121 C142.34 121 141.68 121 141 121 C141 121.66 141 122.32 141 123 C140.34 123 139.68 123 139 123 C139.0928125 124.0828125 139.0928125 124.0828125 139.1875 125.1875 C138.91046045 129.34309322 136.89975952 131.81231744 134.4375 135.0625 C133.023874 136.967822 131.99700267 138.85260963 131 141 C130.34 141 129.68 141 129 141 C129 142.65 129 144.3 129 146 C128.01 146.33 127.02 146.66 126 147 C126.061875 147.763125 126.12375 148.52625 126.1875 149.3125 C125.96125194 152.55538884 125.30238001 152.87472615 123 155 C122.30341637 156.65438613 121.63903117 158.32254318 121 160 C119.5 162.8125 119.5 162.8125 118 165 C117.34 165 116.68 165 116 165 C115.8453125 166.3921875 115.8453125 166.3921875 115.6875 167.8125 C114.95879123 171.19105883 114.42016946 171.78151133 112 174 C111.28552357 176.10332891 111.28552357 176.10332891 111 178 C110.34 178 109.68 178 109 178 C108.8453125 179.3303125 108.8453125 179.3303125 108.6875 180.6875 C107.78206195 185.05006513 106.13447586 187.86552414 103 191 C102.30959426 192.65697379 101.6469365 194.3255761 101 196 C98.33333333 201.66666667 98.33333333 201.66666667 96 204 C94.98234073 205.99107248 93.98422146 207.99218823 93 210 C91.46759314 212.69703607 90.19374645 214.80625355 88 217 C85.24171002 217.19338427 82.58419929 217.26041778 79.82504272 217.24050903 C78.96987143 217.24221788 78.11470014 217.24392673 77.23361456 217.24568737 C74.35146013 217.24899682 71.46953554 217.23795471 68.58740234 217.22705078 C66.52802028 217.22648698 64.46863781 217.22680261 62.40925598 217.22793579 C56.80414634 217.22851152 51.19912164 217.21672161 45.59403181 217.20278788 C39.74169815 217.19031718 33.88936272 217.18911292 28.03701782 217.18673706 C16.94832621 217.1805115 5.85967385 217.16408616 -5.22900045 217.14403808 C-17.8503248 217.1217125 -30.47165099 217.11069407 -43.09299016 217.10064721 C-69.06201524 217.07972084 -95.03100542 217.04452402 -121 217 C-121 215 -121 215 -119 213 C-118.30341637 211.34561387 -117.63903117 209.67745682 -117 208 C-115.57684505 205.04895576 -114.02437571 202.17835016 -112.4375 199.3125 C-112.00308594 198.52488281 -111.56867188 197.73726562 -111.12109375 196.92578125 C-110 195 -110 195 -109 194 C-108.67 193.01 -108.34 192.02 -108 191 C-107.34 191 -106.68 191 -106 191 C-105.62875 189.453125 -105.62875 189.453125 -105.25 187.875 C-104.1642896 184.06725852 -102.44759325 181.13597885 -100 178 C-99.34 178 -98.68 178 -98 178 C-98.0825 177.29875 -98.165 176.5975 -98.25 175.875 C-97.91580785 172.03179024 -96.32995489 170.01523575 -94 167 C-93.34 166.67 -92.68 166.34 -92 166 C-91.855625 165.21625 -91.71125 164.4325 -91.5625 163.625 C-90.92086995 160.63072641 -90.14175179 160.05608172 -88 158 C-86.89363605 155.60931266 -86.89363605 155.60931266 -86 153 C-85.33333333 151.33333333 -84.66666667 149.66666667 -84 148 C-83.01 148 -82.02 148 -81 148 C-80.9175 147.13375 -80.835 146.2675 -80.75 145.375 C-79.88255469 141.47149609 -78.26865837 139.26953707 -76 136 C-75.505 134.845 -75.01 133.69 -74.5 132.5 C-72.99731041 128.9937243 -71.12568843 126.15424735 -69 123 C-68.28426473 121.35380887 -67.5974304 119.69271945 -67 118 C-66.01 118 -65.02 118 -64 118 C-64.33 117.01 -64.66 116.02 -65 115 C-63.76168333 113.4683978 -62.51611246 111.94074937 -61.203125 110.47265625 C-59.73902949 108.68056532 -59.42336721 107.25795845 -59 105 C-58.0337499 102.98347806 -57.03291676 100.98320018 -56 99 C-55.67 98.236875 -55.34 97.47375 -55 96.6875 C-54 95 -54 95 -51 94 C-51.33 93.01 -51.66 92.02 -52 91 C-50.29908869 88.14489888 -48.43027066 85.54611276 -46.375 82.9375 C-44.80217031 80.72123999 -43.95224332 78.53931552 -43 76 C-41.65127072 73.16825237 -40.14354424 70.48325939 -38.5 67.8125 C-38.0771875 67.11769531 -37.654375 66.42289063 -37.21875 65.70703125 C-36 64 -36 64 -34 63 C-34 62.01 -34 61.02 -34 60 C-33.1953125 58.24609375 -33.1953125 58.24609375 -32.125 56.4375 C-31.77695313 55.83808594 -31.42890625 55.23867188 -31.0703125 54.62109375 C-30 53 -30 53 -28 51 C-27.29289322 49.35008418 -26.62056011 47.68437744 -26 46 C-25.34 46 -24.68 46 -24 46 C-23.87625 45.05125 -23.7525 44.1025 -23.625 43.125 C-23 40 -23 40 -21 38 C-20.71125 37.236875 -20.4225 36.47375 -20.125 35.6875 C-19 33 -19 33 -16.9375 30.4375 C-15.0070942 28.00892496 -14.62032687 26.92439808 -14 24 C-13.03112419 21.98473831 -12.0358679 19.98166034 -11 18 C-10.34 18 -9.68 18 -9 18 C-9 17.34 -9 16.68 -9 16 C-8.34 15.67 -7.68 15.34 -7 15 C-7 14.01 -7 13.02 -7 12 C-6.01439389 10.65599167 -5.01241685 9.32392972 -4 8 C-3.28837557 6.35202764 -2.60968047 4.68834592 -2 3 C-1.34 3 -0.68 3 0 3 C0 2.01 0 1.02 0 0 Z " fill="#FEFEFE" transform="translate(1209,665)"/>
<path d="M0 0 C68.31 0 136.62 0 207 0 C206.67 1.98 206.34 3.96 206 6 C205.01 6 204.02 6 203 6 C203.061875 7.175625 203.061875 7.175625 203.125 8.375 C203 11 203 11 201 13 C200.690625 13.845625 200.38125 14.69125 200.0625 15.5625 C199.711875 16.366875 199.36125 17.17125 199 18 C198.01 18.33 197.02 18.66 196 19 C196.33 19.99 196.66 20.98 197 22 C195.70513179 23.69672386 194.36639342 25.3603279 193 27 C191.84478498 29.47130918 191.84478498 29.47130918 191 32 C189.22222222 36.77777778 189.22222222 36.77777778 187 39 C185.40221239 41.89599004 184.19768722 44.92023286 183 48 C182.34 48 181.68 48 181 48 C180.896875 48.556875 180.79375 49.11375 180.6875 49.6875 C179.8662204 52.44998593 178.49810275 54.54311148 177 57 C176.649375 57.886875 176.29875 58.77375 175.9375 59.6875 C175 62 175 62 173 64 C171.72677271 66.32176742 170.84137584 68.47587248 170 71 C169.34 71.99 168.68 72.98 168 74 C167.34 74 166.68 74 166 74 C166.061875 75.175625 166.061875 75.175625 166.125 76.375 C166 79 166 79 164 81 C163.690625 81.845625 163.38125 82.69125 163.0625 83.5625 C162.711875 84.366875 162.36125 85.17125 162 86 C160.515 86.495 160.515 86.495 159 87 C159.33 87.99 159.66 88.98 160 90 C158.70513179 91.69672386 157.36639342 93.3603279 156 95 C154.84478498 97.47130918 154.84478498 97.47130918 154 100 C152.22222222 104.77777778 152.22222222 104.77777778 150 107 C149.3162955 108.32467746 148.65035814 109.65863633 148 111 C147.34 111.99 146.68 112.98 146 114 C145.690625 114.78375 145.38125 115.5675 145.0625 116.375 C143.94419368 119.13787443 142.68569671 121.5416923 141 124 C140.34 124 139.68 124 139 124 C138.896875 124.86625 138.79375 125.7325 138.6875 126.625 C137.96601586 130.16683123 136.72876739 132.84312042 135 136 C134.34 136 133.68 136 133 136 C132.95875 136.804375 132.9175 137.60875 132.875 138.4375 C131.83927974 142.65436108 129.97148922 145.35196841 127.47265625 148.8515625 C126.10703956 150.84384149 125.02279786 152.81605481 124 155 C123.34 155 122.68 155 122 155 C122.33 155.99 122.66 156.98 123 158 C122.34 158.99 121.68 159.98 121 161 C120.34 161 119.68 161 119 161 C119 162.32 119 163.64 119 165 C118.01 165 117.02 165 116 165 C116.33 165.99 116.66 166.98 117 168 C116.03921617 171.03016439 115.26185454 172.73814546 113 175 C112.67 175.825 112.34 176.65 112 177.5 C111 180 111 180 109 182 C108.32558869 183.6635479 107.6599679 185.33066942 107 187 C105.5 189.8125 105.5 189.8125 104 192 C103.34 192 102.68 192 102 192 C102.04125 192.78375 102.0825 193.5675 102.125 194.375 C102 197 102 197 100 199 C99.67 199.825 99.34 200.65 99 201.5 C98 204 98 204 96 206 C95.835 206.66 95.67 207.32 95.5 208 C95 210 95 210 93 212 C92.45108361 213.28077313 92.45108361 213.28077313 91.891078 214.58742046 C90 217 90 217 86.38244343 217.61523914 C84.83601623 217.63631327 83.28906701 217.6294033 81.74275208 217.60127258 C80.89080991 217.60554471 80.03886774 217.60981683 79.16110915 217.61421841 C76.29543561 217.62247949 73.43121335 217.5949125 70.56567383 217.56762695 C68.51599665 217.56621716 66.46631694 217.56700712 64.41664124 217.56983948 C58.84239666 217.57127769 53.26868692 217.54182205 47.69456697 217.50696969 C41.87295869 217.4757738 36.05133899 217.47278079 30.22966003 217.46684265 C19.2011091 217.45128431 8.17280514 217.41022879 -2.85563689 217.3600952 C-15.40924171 217.30426374 -27.96285814 217.27673082 -40.51655614 217.25161803 C-66.34450784 217.19931478 -92.1722401 217.11133373 -118 217 C-118.33 216.34 -118.66 215.68 -119 215 C-118.04710343 213.30596166 -117.03013277 211.64821244 -116 210 C-114.70121457 207.41464342 -113.43825116 204.81406083 -112.18359375 202.20703125 C-111 200 -111 200 -109 198 C-108.29289322 196.35008418 -107.62056011 194.68437744 -107 193 C-106.34 193 -105.68 193 -105 193 C-104.938125 192.175 -104.87625 191.35 -104.8125 190.5 C-103.92998831 186.69841117 -102.53497329 184.42859757 -100.40234375 181.2265625 C-98.3606528 177.9848805 -96.75605092 174.55833516 -95.11328125 171.1015625 C-94 169 -94 169 -92 167 C-90.96054499 165.06232027 -89.96594324 163.10035392 -89 161.125 C-88.484375 160.07570313 -87.96875 159.02640625 -87.4375 157.9453125 C-86.59352886 156.21608903 -85.75681373 154.48322917 -84.9375 152.7421875 C-84 151 -84 151 -82 149 C-81.30341637 147.34561387 -80.63903117 145.67745682 -80 144 C-78.83142059 141.44373253 -78.01070731 140.01070731 -76 138 C-74.9605998 136.0201901 -73.9711225 134.01418 -73 132 C-72.12714922 130.24892704 -71.25202137 128.49898786 -70.375 126.75 C-69.94960938 125.89921875 -69.52421875 125.0484375 -69.0859375 124.171875 C-68.390625 122.78125 -67.6953125 121.390625 -67 120 C-66.01 120 -65.02 120 -64 120 C-64.33 119.01 -64.66 118.02 -65 117 C-64.06927875 115.29367772 -63.04575295 113.63834629 -62 112 C-60.69954716 109.41540093 -59.4382797 106.81412013 -58.18359375 104.20703125 C-57 102 -57 102 -55 100 C-54.71125 99.278125 -54.4225 98.55625 -54.125 97.8125 C-52.72455197 94.31137994 -50.89763122 91.26155366 -49 88 C-48.443125 86.8553125 -48.443125 86.8553125 -47.875 85.6875 C-47 84 -47 84 -45 82 C-44.30341637 80.34561387 -43.63903117 78.67745682 -43 77 C-41.28571429 73.14285714 -41.28571429 73.14285714 -39 72 C-38.23786008 70.31003756 -37.48272194 68.61606156 -36.78515625 66.8984375 C-35.66574377 64.19179837 -34.33157614 61.60766995 -33 59 C-32.484375 57.9275 -31.96875 56.855 -31.4375 55.75 C-30 53 -30 53 -28 51 C-26.65952029 48.58713652 -25.62875198 46.11223298 -24.5625 43.5625 C-22.9081537 39.79059043 -21.3695227 36.31684875 -18.375 33.4375 C-16.71515152 31.70220387 -16.40263517 30.33528396 -16 28 C-15.34 28 -14.68 28 -14 28 C-14.495 26.515 -14.495 26.515 -15 25 C-13.7260411 22.96166576 -12.38938077 20.96147874 -11 19 C-10.505 17.515 -10.505 17.515 -10 16 C-9 15 -8 14 -7 13 C-5.77607103 10.84012535 -4.88457199 8.69700147 -4 6.375 C-3 4 -3 4 -1 2 C-0.67 1.34 -0.34 0.68 0 0 Z " fill="#FEFEFE" transform="translate(906,665)"/>
<path d="M0 0 C0.79570967 0.00582568 1.59141933 0.01165137 2.41124141 0.01765358 C3.25416205 0.01594473 4.09708268 0.01423589 4.96554637 0.01247525 C7.80624343 0.00916595 10.64670726 0.02020764 13.48738277 0.03111184 C15.51720856 0.03167564 17.54703476 0.03136 19.57686031 0.03022683 C25.10139452 0.02965111 30.62584254 0.04144081 36.15035665 0.05537474 C41.9186086 0.06784566 47.68686234 0.06904972 53.45512569 0.07142556 C64.38444573 0.07765105 75.31372593 0.0940763 86.2430284 0.11412454 C98.68297765 0.13645032 111.12292875 0.1474686 123.56289303 0.15751541 C149.15867605 0.17844163 174.75442367 0.21363833 200.35017574 0.25816262 C200.35017574 4.25816262 200.35017574 4.25816262 199.35017574 6.25816262 C198.69017574 6.25816262 198.03017574 6.25816262 197.35017574 6.25816262 C197.68017574 7.24816262 198.01017574 8.23816262 198.35017574 9.25816262 C196.13993186 13.76051127 193.88866241 16.71967594 190.35017574 20.25816262 C190.35017574 21.24816262 190.35017574 22.23816262 190.35017574 23.25816262 C189.39705074 25.30894387 189.39705074 25.30894387 188.10017574 27.57066262 C187.64513668 28.36601418 187.19009761 29.16136574 186.72126949 29.98081887 C185.5910286 31.85811356 184.38623111 33.69030892 183.16267574 35.50816262 C181.46761545 38.07997823 180.42599934 40.38929967 179.35017574 43.25816262 C176.68350907 48.92482928 176.68350907 48.92482928 174.35017574 51.25816262 C173.64306896 52.90807844 172.97073585 54.57378517 172.35017574 56.25816262 C171.69017574 56.25816262 171.03017574 56.25816262 170.35017574 56.25816262 C170.68017574 57.24816262 171.01017574 58.23816262 171.35017574 59.25816262 C170.05530753 60.95488648 168.71656915 62.61849052 167.35017574 64.25816262 C166.65703666 65.91399487 165.98543149 67.5792724 165.35017574 69.25816262 C164.69017574 69.91816262 164.03017574 70.57816262 163.35017574 71.25816262 C163.06142574 72.14503762 162.77267574 73.03191262 162.47517574 73.94566262 C160.50807756 79.73767393 157.68214595 83.92619241 153.35017574 88.25816262 C153.35017574 89.24816262 153.35017574 90.23816262 153.35017574 91.25816262 C152.32673824 93.37925637 152.32673824 93.37925637 150.97517574 95.69566262 C148.99471679 99.11803466 147.14739564 102.54983426 145.47517574 106.13316262 C144.35017574 108.25816262 144.35017574 108.25816262 142.28767574 111.32066262 C140.2454503 114.14173602 140.2454503 114.14173602 139.35017574 117.25816262 C138.69017574 117.91816262 138.03017574 118.57816262 137.35017574 119.25816262 C136.64306896 120.90807844 135.97073585 122.57378517 135.35017574 124.25816262 C134.69017574 124.25816262 134.03017574 124.25816262 133.35017574 124.25816262 C133.68017574 125.24816262 134.01017574 126.23816262 134.35017574 127.25816262 C133.05530753 128.95488648 131.71656915 130.61849052 130.35017574 132.25816262 C129.65703666 133.91399487 128.98543149 135.5792724 128.35017574 137.25816262 C127.69017574 137.91816262 127.03017574 138.57816262 126.35017574 139.25816262 C125.18074997 141.37774682 124.24954255 143.50974558 123.35017574 145.75816262 C121.58444062 150.17250042 119.86649019 152.97626913 116.35017574 156.25816262 C116.68017574 156.91816262 117.01017574 157.57816262 117.35017574 158.25816262 C116.42439449 160.06285012 116.42439449 160.06285012 115.03767574 162.13316262 C113.27916578 164.78352434 111.76254572 167.41036355 110.35017574 170.25816262 C109.01684241 172.25816262 107.68350907 174.25816262 106.35017574 176.25816262 C105.1675685 178.42627589 104.2623309 180.49827185 103.41267574 182.82066262 C102.33285566 185.29789692 101.22373825 186.38460011 99.35017574 188.25816262 C98.63569931 190.36149153 98.63569931 190.36149153 98.35017574 192.25816262 C97.69017574 192.25816262 97.03017574 192.25816262 96.35017574 192.25816262 C96.68017574 193.24816262 97.01017574 194.23816262 97.35017574 195.25816262 C95.32053605 199.24495486 93.04939125 202.70010581 90.35017574 206.25816262 C89.64866422 207.57349672 88.98491648 208.90933853 88.35017574 210.25816262 C85.58094497 216.142778 85.58094497 216.142778 83.35017574 217.25816262 C80.64195518 217.35395194 77.95955601 217.38828352 75.2511462 217.37841713 C74.40414201 217.37927156 73.55713782 217.38012598 72.68446684 217.3810063 C69.83001404 217.38266094 66.97561927 217.37713997 64.12117183 217.37168801 C62.08149391 217.37140611 60.04181588 217.37156393 58.00213802 217.37213051 C52.45077178 217.37241837 46.89942698 217.36652348 41.34806573 217.35955656 C35.55178327 217.35332113 29.75550035 217.35271907 23.95921504 217.35153115 C12.97678543 217.34841839 1.99436572 217.34020575 -8.98805952 217.33018166 C-21.48847134 217.3190188 -33.98888362 217.31350963 -46.48929918 217.30848622 C-72.20947971 217.2980231 -97.92965143 217.28042472 -123.64982426 217.25816262 C-123.97982426 216.59816262 -124.30982426 215.93816262 -124.64982426 215.25816262 C-123.64982426 212.25816262 -123.64982426 212.25816262 -121.64982426 210.25816262 C-120.93066399 209.1319305 -120.24517026 207.98377436 -119.58732426 206.82066262 C-119.2457227 206.22382668 -118.90412114 205.62699074 -118.55216801 205.01206887 C-117.51266521 203.101369 -117.51266521 203.101369 -116.64982426 200.25816262 C-115.65982426 199.26816262 -115.65982426 199.26816262 -114.64982426 198.25816262 C-113.94271748 196.60824679 -113.27038437 194.94254006 -112.64982426 193.25816262 C-111.98982426 193.25816262 -111.32982426 193.25816262 -110.64982426 193.25816262 C-110.97982426 192.26816262 -111.30982426 191.27816262 -111.64982426 190.25816262 C-110.72404301 188.21519387 -110.72404301 188.21519387 -109.33732426 186.07066262 C-108.88744145 185.35523293 -108.43755864 184.63980324 -107.97404301 183.90269387 C-107.53705082 183.35999856 -107.10005864 182.81730324 -106.64982426 182.25816262 C-105.98982426 182.25816262 -105.32982426 182.25816262 -104.64982426 182.25816262 C-103.98982426 179.94816262 -103.32982426 177.63816262 -102.64982426 175.25816262 C-101.98982426 175.25816262 -101.32982426 175.25816262 -100.64982426 175.25816262 C-100.64982426 173.60816262 -100.64982426 171.95816262 -100.64982426 170.25816262 C-99.98982426 170.25816262 -99.32982426 170.25816262 -98.64982426 170.25816262 C-98.36107426 169.14441262 -98.07232426 168.03066262 -97.77482426 166.88316262 C-96.64982426 163.25816262 -96.64982426 163.25816262 -94.64982426 161.25816262 C-93.94587814 159.94412986 -93.28636768 158.60613691 -92.64982426 157.25816262 C-89.88059349 151.48893185 -89.88059349 151.48893185 -87.64982426 149.25816262 C-86.96348179 147.59950164 -86.2999738 145.93134157 -85.64982426 144.25816262 C-84.67879436 142.32665749 -83.67782249 140.40995934 -82.64982426 138.50816262 C-82.13419926 137.54394387 -81.61857426 136.57972512 -81.08732426 135.58628762 C-79.64982426 133.25816262 -79.64982426 133.25816262 -77.64982426 132.25816262 C-77.50544926 131.53628762 -77.36107426 130.81441262 -77.21232426 130.07066262 C-76.55353269 126.77670474 -75.2276734 124.20805448 -73.64982426 121.25816262 C-72.98982426 121.25816262 -72.32982426 121.25816262 -71.64982426 121.25816262 C-71.36107426 120.14441262 -71.07232426 119.03066262 -70.77482426 117.88316262 C-69.64982426 114.25816262 -69.64982426 114.25816262 -67.64982426 112.25816262 C-66.94587814 110.94412986 -66.28636768 109.60613691 -65.64982426 108.25816262 C-63.60454634 103.97281841 -61.29003495 99.98649206 -58.73576176 95.99253762 C-57.61014317 94.19478707 -56.69634803 92.35453327 -55.77482426 90.44566262 C-54.64982426 88.25816262 -54.64982426 88.25816262 -53.14982426 85.82066262 C-51.57257019 83.30235329 -51.57257019 83.30235329 -50.64982426 80.50816262 C-50.31982426 79.76566262 -49.98982426 79.02316262 -49.64982426 78.25816262 C-48.65982426 77.92816262 -47.66982426 77.59816262 -46.64982426 77.25816262 C-46.71169926 76.53628762 -46.77357426 75.81441262 -46.83732426 75.07066262 C-46.56028471 70.9150694 -44.54958378 68.44584518 -42.08732426 65.19566262 C-40.59370608 63.29979869 -40.59370608 63.29979869 -39.58732426 61.13316262 C-38.64982426 59.25816262 -38.64982426 59.25816262 -36.64982426 57.25816262 C-36.64982426 56.26816262 -36.64982426 55.27816262 -36.64982426 54.25816262 C-35.98982426 54.25816262 -35.32982426 54.25816262 -34.64982426 54.25816262 C-34.54669926 53.51566262 -34.44357426 52.77316262 -34.33732426 52.00816262 C-33.59230306 49.02807783 -32.51795089 47.6493647 -30.64982426 45.25816262 C-30.34044926 44.47441262 -30.03107426 43.69066262 -29.71232426 42.88316262 C-28.41943828 39.68897372 -26.57271907 37.11337006 -24.64982426 34.25816262 C-23.6169075 32.27496244 -22.61607436 30.27468456 -21.64982426 28.25816262 C-20.64982426 26.25816262 -19.64982426 24.25816262 -18.64982426 22.25816262 C-17.98982426 22.25816262 -17.32982426 22.25816262 -16.64982426 22.25816262 C-16.71169926 21.49503762 -16.77357426 20.73191262 -16.83732426 19.94566262 C-16.61281418 16.72768474 -15.98408214 16.32308305 -13.64982426 14.25816262 C-12.95044894 12.94169143 -12.28253293 11.60794111 -11.64982426 10.25816262 C-10.98982426 9.26816262 -10.32982426 8.27816262 -9.64982426 7.25816262 C-9.31982426 6.41253762 -8.98982426 5.56691262 -8.64982426 4.69566262 C-6.73812316 0.03589119 -4.75610579 0.02624762 0 0 Z " fill="#FEFEFE" transform="translate(316.64982426166534,664.7418373823166)"/>
<path d="" fill="#FFFFFF" transform="translate(0,0)"/>
<path d="" fill="#FFFFFF" transform="translate(0,0)"/>
<path d="" fill="#FFFFFF" transform="translate(0,0)"/>
<path d="" fill="#FFFFFF" transform="translate(0,0)"/>
<path d="" fill="#FFFFFF" transform="translate(0,0)"/>
<path d="" fill="#FFFFFF" transform="translate(0,0)"/>
<path d="" fill="#FFFFFF" transform="translate(0,0)"/>
<path d="" fill="#FFFFFF" transform="translate(0,0)"/>
<path d="" fill="#FFFFFF" transform="translate(0,0)"/>
<path d="" fill="#FFFFFF" transform="translate(0,0)"/>
<path d="" fill="#FFFFFF" transform="translate(0,0)"/>
<path d="" fill="#FFFFFF" transform="translate(0,0)"/>
<path d="" fill="#FFFFFF" transform="translate(0,0)"/>
<path d="" fill="#FFFFFF" transform="translate(0,0)"/>
<path d="" fill="#FFFFFF" transform="translate(0,0)"/>
<path d="" fill="#FFFFFF" transform="translate(0,0)"/>
<path d="" fill="#FFFFFF" transform="translate(0,0)"/>
<path d="" fill="#FFFFFF" transform="translate(0,0)"/>
<path d="" fill="#FFFFFF" transform="translate(0,0)"/>
<path d="" fill="#FFFFFF" transform="translate(0,0)"/>
<path d="" fill="#FFFFFF" transform="translate(0,0)"/>
<path d="" fill="#FFFFFF" transform="translate(0,0)"/>
<path d="" fill="#FFFFFF" transform="translate(0,0)"/>
<path d="" fill="#FFFFFF" transform="translate(0,0)"/>
<path d="" fill="#FFFFFF" transform="translate(0,0)"/>
<path d="" fill="#FFFFFF" transform="translate(0,0)"/>
<path d="" fill="#FFFFFF" transform="translate(0,0)"/>
<path d="" fill="#FFFFFF" transform="translate(0,0)"/>
<path d="" fill="#FFFFFF" transform="translate(0,0)"/>
<path d="" fill="#FFFFFF" transform="translate(0,0)"/>
<path d="" fill="#FFFFFF" transform="translate(0,0)"/>
<path d="" fill="#FFFFFF" transform="translate(0,0)"/>
<path d="" fill="#FFFFFF" transform="translate(0,0)"/>
<path d="" fill="#FFFFFF" transform="translate(0,0)"/>
<path d="" fill="#FFFFFF" transform="translate(0,0)"/>
<path d="" fill="#FFFFFF" transform="translate(0,0)"/>
<path d="" fill="#FFFFFF" transform="translate(0,0)"/>
<path d="" fill="#FFFFFF" transform="translate(0,0)"/>
<path d="" fill="#FFFFFF" transform="translate(0,0)"/>
<path d="" fill="#FFFFFF" transform="translate(0,0)"/>
<path d="" fill="#FFFFFF" transform="translate(0,0)"/>
<path d="" fill="#FFFFFF" transform="translate(0,0)"/>
<path d="" fill="#FFFFFF" transform="translate(0,0)"/>
<path d="" fill="#FFFFFF" transform="translate(0,0)"/>
<path d="" fill="#FFFFFF" transform="translate(0,0)"/>
<path d="" fill="#FFFFFF" transform="translate(0,0)"/>
<path d="" fill="#FFFFFF" transform="translate(0,0)"/>
<path d="" fill="#FFFFFF" transform="translate(0,0)"/>
<path d="" fill="#FFFFFF" transform="translate(0,0)"/>
<path d="" fill="#FFFFFF" transform="translate(0,0)"/>
<path d="" fill="#FFFFFF" transform="translate(0,0)"/>
<path d="" fill="#FFFFFF" transform="translate(0,0)"/>
<path d="" fill="#FFFFFF" transform="translate(0,0)"/>
<path d="" fill="#FFFFFF" transform="translate(0,0)"/>
<path d="" fill="#FFFFFF" transform="translate(0,0)"/>
<path d="" fill="#FFFFFF" transform="translate(0,0)"/>
<path d="" fill="#FFFFFF" transform="translate(0,0)"/>
<path d="" fill="#FFFFFF" transform="translate(0,0)"/>
<path d="" fill="#FFFFFF" transform="translate(0,0)"/>
<path d="" fill="#FFFFFF" transform="translate(0,0)"/>
<path d="" fill="#FFFFFF" transform="translate(0,0)"/>
<path d="" fill="#FFFFFF" transform="translate(0,0)"/>
<path d="" fill="#FFFFFF" transform="translate(0,0)"/>
<path d="" fill="#FFFFFF" transform="translate(0,0)"/>
<path d="" fill="#FFFFFF" transform="translate(0,0)"/>
<path d="" fill="#FFFFFF" transform="translate(0,0)"/>
<path d="" fill="#FFFFFF" transform="translate(0,0)"/>
<path d="" fill="#FFFFFF" transform="translate(0,0)"/>
</svg>
